ffmpeg started on 2016-12-08 at 08:13:37
Report written to "Output/x264/results/ffmpeg/sintelslower14000k.log"
Command line:
Tools/ffmpeg/ffmpeg -benchmark -y -i Input/y4m/sintel.y4m -c:v libx264 -preset slower -b:v 14000k -an Output/x264/encoded/sintelslower14000k.mkv
ffmpeg version N-82227-gdb23fde Copyright (c) 2000-2016 the FFmpeg developers
  built with gcc 5.4.0 (Ubuntu 5.4.0-6ubuntu1~16.04.2) 20160609
  configuration: --prefix=/home/jaroslav/ffmpeg_build --pkg-config-flags=--static --extra-cflags=-I/home/jaroslav/ffmpeg_build/include --extra-ldflags=-L/home/jaroslav/ffmpeg_build/lib --bindir=/home/jaroslav/bin --enable-gpl --enable-libass --enable-libfdk-aac --enable-libfreetype --enable-libmp3lame --enable-libopus --enable-libtheora --enable-libvorbis --enable-libvpx --enable-libx264 --enable-libx265 --enable-nvenc --enable-libmfx --enable-libxvid --enable-libgsm --enable-libopencore-amrnb --enable-version3 --enable-nonfree
  libavutil      55. 35.100 / 55. 35.100
  libavcodec     57. 66.101 / 57. 66.101
  libavformat    57. 57.100 / 57. 57.100
  libavdevice    57.  2.100 / 57.  2.100
  libavfilter     6. 66.100 /  6. 66.100
  libswscale      4.  3.100 /  4.  3.100
  libswresample   2.  4.100 /  2.  4.100
  libpostproc    54.  2.100 / 54.  2.100
Input #0, yuv4mpegpipe, from 'Input/y4m/sintel.y4m':
  Duration: 00:00:20.83, start: 0.000000, bitrate: 2057307 kb/s
    Stream #0:0: Video: rawvideo (I420 / 0x30323449), yuv420p(progressive), 4096x1744, SAR 1:1 DAR 256:109, 24 fps, 24 tbr, 24 tbn, 24 tbc
[libx264 @ 0x39651c0] using SAR=1/1
[libx264 @ 0x39651c0] DPB size (8 frames, 223232 mbs) > level limit (6 frames, 184320 mbs)
[libx264 @ 0x39651c0] using cpu capabilities: MMX2 SSE2Fast SSSE3 SSE4.2 AVX FMA3 AVX2 LZCNT BMI2
[libx264 @ 0x39651c0] profile High, level 5.2
[libx264 @ 0x39651c0] 264 - core 148 - H.264/MPEG-4 AVC codec - Copyleft 2003-2016 - http://www.videolan.org/x264.html - options: cabac=1 ref=8 deblock=1:0:0 analyse=0x3:0x133 me=umh subme=9 psy=1 psy_rd=1.00:0.00 mixed_ref=1 me_range=16 chroma_me=1 trellis=2 8x8dct=1 cqm=0 deadzone=21,11 fast_pskip=1 chroma_qp_offset=-2 threads=6 lookahead_threads=1 sliced_threads=0 nr=0 decimate=1 interlaced=0 bluray_compat=0 constrained_intra=0 bframes=3 b_pyramid=2 b_adapt=2 b_bias=0 direct=3 weightb=1 open_gop=0 weightp=2 keyint=250 keyint_min=24 scenecut=40 intra_refresh=0 rc_lookahead=60 rc=abr mbtree=1 bitrate=14000 ratetol=1.0 qcomp=0.60 qpmin=0 qpmax=69 qpstep=4 ip_ratio=1.40 aq=1:1.00
Output #0, matroska, to 'Output/x264/encoded/sintelslower14000k.mkv':
  Metadata:
    encoder         : Lavf57.57.100
    Stream #0:0: Video: h264 (libx264) (H264 / 0x34363248), yuv420p, 4096x1744 [SAR 1:1 DAR 256:109], q=-1--1, 14000 kb/s, 24 fps, 1k tbn, 24 tbc
    Metadata:
      encoder         : Lavc57.66.101 libx264
    Side data:
      cpb: bitrate max/min/avg: 0/0/14000000 buffer size: 0 vbv_delay: -1
Stream mapping:
  Stream #0:0 -> #0:0 (rawvideo (native) -> h264 (libx264))
Press [q] to stop, [?] for help
frame=   10 fps=0.0 q=0.0 size=       0kB time=00:00:00.00 bitrate=N/A speed=   0x    frame=   19 fps= 18 q=0.0 size=       0kB time=00:00:00.00 bitrate=N/A speed=   0x    frame=   26 fps= 15 q=0.0 size=       0kB time=00:00:00.00 bitrate=N/A speed=   0x    frame=   35 fps= 15 q=0.0 size=       0kB time=00:00:00.00 bitrate=N/A speed=   0x    frame=   44 fps= 16 q=0.0 size=       0kB time=00:00:00.00 bitrate=N/A speed=   0x    frame=   53 fps= 16 q=0.0 size=       0kB time=00:00:00.00 bitrate=N/A speed=   0x    frame=   62 fps= 16 q=0.0 size=       0kB time=00:00:00.00 bitrate=N/A speed=   0x    frame=   67 fps=6.3 q=0.0 size=       0kB time=00:00:00.00 bitrate=N/A speed=   0x    frame=   68 fps=5.8 q=0.0 size=       0kB time=00:00:00.00 bitrate=N/A speed=   0x    frame=   73 fps=5.2 q=31.0 size=       1kB time=00:00:00.00 bitrate=5888.0kbits/s speed=7.19e-05x    frame=   74 fps=5.1 q=25.0 size=       1kB time=00:00:00.04 bitrate= 136.9kbits/s speed=0.00294x    frame=   75 fps=4.8 q=28.0 size=       1kB time=00:00:00.08 bitrate=  70.1kbits/s speed=0.0054x    frame=   77 fps=4.5 q=35.0 size=       1kB time=00:00:00.16 bitrate=  35.0kbits/s speed=0.00991x    frame=   80 fps=4.3 q=40.0 size=       1kB time=00:00:00.29 bitrate=  20.1kbits/s speed=0.0159x    frame=   81 fps=4.1 q=40.0 size=       1kB time=00:00:00.33 bitrate=  17.6kbits/s speed=0.0171x    frame=   86 fps=4.0 q=39.0 size=       1kB time=00:00:00.54 bitrate=  10.8kbits/s speed=0.0253x    frame=   88 fps=3.9 q=39.0 size=       1kB time=00:00:00.62 bitrate=   9.4kbits/s speed=0.0279x    frame=   90 fps=3.9 q=39.0 size=       1kB time=00:00:00.70 bitrate=   8.3kbits/s speed=0.0306x    frame=   92 fps=3.8 q=38.0 size=       1kB time=00:00:00.79 bitrate=   7.4kbits/s speed=0.0327x    frame=   93 fps=3.7 q=38.0 size=       1kB time=00:00:00.83 bitrate=   7.1kbits/s speed=0.0335x    frame=   95 fps=3.6 q=38.0 size=       1kB time=00:00:00.91 bitrate=   6.4kbits/s speed=0.0349x    frame=   98 fps=3.6 q=38.0 size=       1kB time=00:00:01.04 bitrate=   5.6kbits/s speed=0.0385x    frame=  100 fps=3.6 q=38.0 size=       1kB time=00:00:01.12 bitrate=   5.2kbits/s speed=0.0403x    frame=  101 fps=3.5 q=37.0 size=       1kB time=00:00:01.16 bitrate=   5.0kbits/s speed=0.0408x    frame=  102 fps=3.5 q=37.0 size=       1kB time=00:00:01.20 bitrate=   4.9kbits/s speed=0.0412x    frame=  103 fps=3.4 q=37.0 size=       1kB time=00:00:01.25 bitrate=   4.7kbits/s speed=0.0415x    frame=  105 fps=3.4 q=37.0 size=       1kB time=00:00:01.33 bitrate=   4.4kbits/s speed=0.0435x    frame=  106 fps=3.4 q=37.0 size=       1kB time=00:00:01.37 bitrate=   4.3kbits/s speed=0.044x    frame=  108 fps=3.4 q=37.0 size=       1kB time=00:00:01.45 bitrate=   4.0kbits/s speed=0.0455x    frame=  109 fps=3.3 q=37.0 size=       1kB time=00:00:01.50 bitrate=   3.9kbits/s speed=0.046x    frame=  110 fps=3.3 q=37.0 size=       1kB time=00:00:01.54 bitrate=   3.8kbits/s speed=0.0464x    frame=  112 fps=3.3 q=36.0 size=       1kB time=00:00:01.62 bitrate=   3.6kbits/s speed=0.0476x    frame=  114 fps=3.3 q=36.0 size=       1kB time=00:00:01.70 bitrate=   3.4kbits/s speed=0.0493x    frame=  116 fps=3.3 q=36.0 size=       1kB time=00:00:01.79 bitrate=   3.3kbits/s speed=0.0504x    frame=  118 fps=3.2 q=36.0 size=       1kB time=00:00:01.87 bitrate=   3.1kbits/s speed=0.0516x    frame=  120 fps=3.2 q=36.0 size=       1kB time=00:00:01.95 bitrate=   3.0kbits/s speed=0.0526x    frame=  121 fps=3.2 q=36.0 size=       1kB time=00:00:02.00 bitrate=   2.9kbits/s speed=0.0527x    frame=  123 fps=3.1 q=35.0 size=       1kB time=00:00:02.08 bitrate=   2.8kbits/s speed=0.0532x    frame=  124 fps=3.1 q=35.0 size=       1kB time=00:00:02.12 bitrate=   2.8kbits/s speed=0.0534x    frame=  126 fps=3.1 q=35.0 size=    5126kB time=00:00:02.20 bitrate=19009.5kbits/s speed=0.0544x    frame=  127 fps=3.1 q=35.0 size=    5126kB time=00:00:02.25 bitrate=18654.8kbits/s speed=0.0544x    frame=  129 fps=3.0 q=35.0 size=    5126kB time=00:00:02.33 bitrate=17991.5kbits/s speed=0.0551x    frame=  130 fps=3.0 q=35.0 size=    5126kB time=00:00:02.37 bitrate=17673.4kbits/s speed=0.055x    frame=  132 fps=3.0 q=35.0 size=    5126kB time=00:00:02.45 bitrate=17076.9kbits/s speed=0.0555x    frame=  133 fps=3.0 q=35.0 size=    5126kB time=00:00:02.50 bitrate=16790.1kbits/s speed=0.0555x    frame=  134 fps=2.9 q=35.0 size=    5126kB time=00:00:02.54 bitrate=16512.8kbits/s speed=0.0558x    frame=  136 fps=2.9 q=35.0 size=    5126kB time=00:00:02.62 bitrate=15990.9kbits/s speed=0.0567x    frame=  137 fps=2.9 q=35.0 size=    5126kB time=00:00:02.66 bitrate=15739.2kbits/s speed=0.056x    frame=  139 fps=2.9 q=35.0 size=    5126kB time=00:00:02.75 bitrate=15264.3kbits/s speed=0.057x    frame=  141 fps=2.9 q=35.0 size=    5126kB time=00:00:02.83 bitrate=14817.2kbits/s speed=0.0576x    frame=  143 fps=2.8 q=35.0 size=    5126kB time=00:00:02.91 bitrate=14390.7kbits/s speed=0.058x    frame=  144 fps=2.8 q=35.0 size=    5126kB time=00:00:02.95 bitrate=14191.3kbits/s speed=0.0579x    frame=  146 fps=2.8 q=34.0 size=    5126kB time=00:00:03.04 bitrate=13799.6kbits/s speed=0.0586x    frame=  148 fps=2.8 q=34.0 size=    5126kB time=00:00:03.12 bitrate=13433.2kbits/s speed=0.0592x    frame=  150 fps=2.8 q=34.0 size=    5126kB time=00:00:03.20 bitrate=13085.7kbits/s speed=0.0592x    frame=  151 fps=2.7 q=34.0 size=    5126kB time=00:00:03.25 bitrate=12916.7kbits/s speed=0.0592x    frame=  153 fps=2.7 q=34.0 size=    5126kB time=00:00:03.33 bitrate=12595.1kbits/s speed=0.0596x    frame=  155 fps=2.7 q=34.0 size=    5126kB time=00:00:03.41 bitrate=12285.6kbits/s speed=0.0599x    frame=  157 fps=2.7 q=34.0 size=    5126kB time=00:00:03.50 bitrate=11994.3kbits/s speed=0.0604x    frame=  159 fps=2.7 q=34.0 size=    5126kB time=00:00:03.58 bitrate=11716.5kbits/s speed=0.0608x    frame=  160 fps=2.7 q=34.0 size=    5126kB time=00:00:03.62 bitrate=11580.8kbits/s speed=0.0606x    frame=  161 fps=2.7 q=34.0 size=    5126kB time=00:00:03.66 bitrate=11448.2kbits/s speed=0.0608x    frame=  163 fps=2.7 q=34.0 size=    5126kB time=00:00:03.75 bitrate=11194.9kbits/s speed=0.0614x    frame=  165 fps=2.7 q=33.0 size=    5126kB time=00:00:03.83 bitrate=10952.5kbits/s speed=0.0618x    frame=  167 fps=2.6 q=33.0 size=    5126kB time=00:00:03.91 bitrate=10717.7kbits/s speed=0.0618x    frame=  170 fps=2.7 q=33.0 size=    5126kB time=00:00:04.04 bitrate=10386.4kbits/s speed=0.0631x    frame=  172 fps=2.6 q=33.0 size=    5126kB time=00:00:04.12 bitrate=10177.4kbits/s speed=0.0632x    frame=  173 fps=2.6 q=33.0 size=    5126kB time=00:00:04.16 bitrate=10074.9kbits/s speed=0.0626x    frame=  177 fps=2.6 q=33.0 size=    5126kB time=00:00:04.33 bitrate=9689.0kbits/s speed=0.0641x    frame=  179 fps=2.6 q=33.0 size=    5126kB time=00:00:04.41 bitrate=9504.8kbits/s speed=0.0644x    frame=  181 fps=2.6 q=31.0 size=    5126kB time=00:00:04.50 bitrate=9329.5kbits/s speed=0.0648x    frame=  182 fps=2.6 q=33.0 size=    5126kB time=00:00:04.54 bitrate=9243.2kbits/s speed=0.0646x    frame=  184 fps=2.6 q=33.0 size=    5126kB time=00:00:04.62 bitrate=9077.4kbits/s speed=0.0653x    frame=  186 fps=2.6 q=33.0 size=    8213kB time=00:00:04.70 bitrate=14287.6kbits/s speed=0.0659x    frame=  191 fps=2.6 q=32.0 size=    8213kB time=00:00:04.91 bitrate=13680.4kbits/s speed=0.0675x    frame=  193 fps=2.6 q=32.0 size=    8213kB time=00:00:05.00 bitrate=13453.4kbits/s speed=0.0679x    frame=  196 fps=2.6 q=32.0 size=    8213kB time=00:00:05.12 bitrate=13125.3kbits/s speed=0.0688x    frame=  197 fps=2.6 q=32.0 size=    8213kB time=00:00:05.16 bitrate=13018.7kbits/s speed=0.0683x    frame=  198 fps=2.6 q=32.0 size=    8213kB time=00:00:05.20 bitrate=12916.2kbits/s speed=0.0683x    frame=  199 fps=2.6 q=32.0 size=    8213kB time=00:00:05.25 bitrate=12812.9kbits/s speed=0.0684x    frame=  201 fps=2.6 q=32.0 size=    8213kB time=00:00:05.33 bitrate=12613.5kbits/s speed=0.0688x    frame=  203 fps=2.6 q=32.0 size=    8213kB time=00:00:05.41 bitrate=12417.9kbits/s speed=0.0689x    frame=  205 fps=2.6 q=32.0 size=    8213kB time=00:00:05.50 bitrate=12230.6kbits/s speed=0.0691x    frame=  207 fps=2.6 q=32.0 size=    8213kB time=00:00:05.58 bitrate=12048.8kbits/s speed=0.0695x    frame=  208 fps=2.6 q=32.0 size=    8213kB time=00:00:05.62 bitrate=11958.8kbits/s speed=0.0694x    frame=  210 fps=2.6 q=32.0 size=    8213kB time=00:00:05.70 bitrate=11785.0kbits/s speed=0.0698x    frame=  212 fps=2.6 q=32.0 size=    8213kB time=00:00:05.79 bitrate=11614.1kbits/s speed=0.0704x    frame=  214 fps=2.6 q=32.0 size=    8213kB time=00:00:05.87 bitrate=11450.0kbits/s speed=0.0703x    frame=  215 fps=2.6 q=32.0 size=    8213kB time=00:00:05.91 bitrate=11368.8kbits/s speed=0.0703x    frame=  217 fps=2.6 q=32.0 size=    8213kB time=00:00:06.00 bitrate=11211.5kbits/s speed=0.0708x    frame=  219 fps=2.6 q=32.0 size=    8213kB time=00:00:06.08 bitrate=11058.6kbits/s speed=0.0711x    frame=  221 fps=2.6 q=32.0 size=    8213kB time=00:00:06.16 bitrate=10908.0kbits/s speed=0.0713x    frame=  222 fps=2.5 q=32.0 size=    8213kB time=00:00:06.20 bitrate=10836.0kbits/s speed=0.0711x    frame=  224 fps=2.6 q=32.0 size=    8213kB time=00:00:06.29 bitrate=10691.3kbits/s speed=0.0716x    frame=  227 fps=2.6 q=32.0 size=    8213kB time=00:00:06.41 bitrate=10483.1kbits/s speed=0.0726x    frame=  228 fps=2.5 q=32.0 size=    8213kB time=00:00:06.45 bitrate=10416.5kbits/s speed=0.0716x    frame=  231 fps=2.5 q=32.0 size=    8213kB time=00:00:06.58 bitrate=10218.8kbits/s speed=0.0724x    frame=  233 fps=2.5 q=32.0 size=    8213kB time=00:00:06.66 bitrate=10090.0kbits/s speed=0.0727x    frame=  234 fps=2.5 q=32.0 size=    8213kB time=00:00:06.70 bitrate=10028.4kbits/s speed=0.072x    frame=  236 fps=2.5 q=31.0 size=    8213kB time=00:00:06.79 bitrate=9904.4kbits/s speed=0.0725x    frame=  238 fps=2.5 q=31.0 size=    8213kB time=00:00:06.87 bitrate=9784.8kbits/s speed=0.0729x    frame=  240 fps=2.5 q=31.0 size=    8213kB time=00:00:06.95 bitrate=9668.1kbits/s speed=0.0729x    frame=  242 fps=2.5 q=31.0 size=    8213kB time=00:00:07.04 bitrate=9552.8kbits/s speed=0.0729x    frame=  245 fps=2.5 q=31.0 size=    8213kB time=00:00:07.16 bitrate=9386.2kbits/s speed=0.0735x    frame=  246 fps=2.5 q=31.0 size=    8213kB time=00:00:07.20 bitrate=9332.8kbits/s speed=0.0733x    frame=  247 fps=2.5 q=31.0 size=    8213kB time=00:00:07.25 bitrate=9278.8kbits/s speed=0.0732x    frame=  249 fps=2.5 q=29.0 size=    8213kB time=00:00:07.33 bitrate=9173.8kbits/s speed=0.0737x    frame=  250 fps=2.5 q=31.0 size=    8213kB time=00:00:07.37 bitrate=9121.5kbits/s speed=0.0734x    frame=  253 fps=2.5 q=31.0 size=    8213kB time=00:00:07.50 bitrate=8969.5kbits/s speed=0.0741x    frame=  258 fps=2.5 q=31.0 size=   12285kB time=00:00:07.70 bitrate=13055.1kbits/s speed=0.0756x    frame=  260 fps=2.5 q=31.0 size=   12285kB time=00:00:07.79 bitrate=12914.4kbits/s speed=0.0759x    frame=  262 fps=2.5 q=31.0 size=   12285kB time=00:00:07.87 bitrate=12778.3kbits/s speed=0.076x    frame=  264 fps=2.5 q=31.0 size=   12285kB time=00:00:07.95 bitrate=12645.1kbits/s speed=0.0764x    frame=  266 fps=2.5 q=31.0 size=   12285kB time=00:00:08.04 bitrate=12513.0kbits/s speed=0.0767x    frame=  267 fps=2.5 q=31.0 size=   12285kB time=00:00:08.08 bitrate=12449.5kbits/s speed=0.0767x    frame=  268 fps=2.5 q=31.0 size=   12285kB time=00:00:08.12 bitrate=12385.2kbits/s speed=0.0765x    frame=  269 fps=2.5 q=31.0 size=   12285kB time=00:00:08.16 bitrate=12321.5kbits/s speed=0.0765x    frame=  270 fps=2.5 q=31.0 size=   12285kB time=00:00:08.20 bitrate=12260.0kbits/s speed=0.0765x    frame=  271 fps=2.5 q=31.0 size=   12285kB time=00:00:08.25 bitrate=12197.6kbits/s speed=0.0765x    frame=  273 fps=2.5 q=31.0 size=   12285kB time=00:00:08.33 bitrate=12076.1kbits/s speed=0.0767x    frame=  275 fps=2.5 q=31.0 size=   12285kB time=00:00:08.41 bitrate=11955.6kbits/s speed=0.0768x    frame=  277 fps=2.5 q=31.0 size=   12285kB time=00:00:08.50 bitrate=11838.8kbits/s speed=0.077x    frame=  279 fps=2.5 q=31.0 size=   12285kB time=00:00:08.58 bitrate=11724.4kbits/s speed=0.0766x    frame=  282 fps=2.5 q=31.0 size=   12285kB time=00:00:08.70 bitrate=11556.1kbits/s speed=0.0773x    frame=  284 fps=2.5 q=31.0 size=   12285kB time=00:00:08.79 bitrate=11445.7kbits/s speed=0.0776x    frame=  285 fps=2.5 q=31.0 size=   12285kB time=00:00:08.83 bitrate=11392.6kbits/s speed=0.0775x    frame=  287 fps=2.5 q=31.0 size=   12285kB time=00:00:08.91 bitrate=11285.3kbits/s speed=0.0773x    frame=  290 fps=2.5 q=31.0 size=   12285kB time=00:00:09.04 bitrate=11129.3kbits/s speed=0.0779x    frame=  293 fps=2.5 q=31.0 size=   12285kB time=00:00:09.16 bitrate=10977.5kbits/s speed=0.0775x    frame=  295 fps=2.5 q=31.0 size=   12285kB time=00:00:09.25 bitrate=10879.0kbits/s speed=0.0779x    frame=  299 fps=2.5 q=30.0 size=   12285kB time=00:00:09.41 bitrate=10686.1kbits/s speed=0.0787x    frame=  301 fps=2.5 q=30.0 size=   12285kB time=00:00:09.50 bitrate=10592.8kbits/s speed=0.078x    frame=  306 fps=2.5 q=30.0 size=   12285kB time=00:00:09.70 bitrate=10365.8kbits/s speed=0.0793x    frame=  307 fps=2.5 q=30.0 size=   12285kB time=00:00:09.75 bitrate=10321.2kbits/s speed=0.0787x    frame=  310 fps=2.5 q=30.0 size=   12285kB time=00:00:09.87 bitrate=10190.6kbits/s speed=0.0793x    frame=  311 fps=2.5 q=30.0 size=   12285kB time=00:00:09.91 bitrate=10147.4kbits/s speed=0.0792x    frame=  313 fps=2.5 q=30.0 size=   12285kB time=00:00:10.00 bitrate=10063.2kbits/s speed=0.0793x    frame=  316 fps=2.5 q=30.0 size=   12285kB time=00:00:10.12 bitrate=9939.0kbits/s speed=0.0799x    frame=  318 fps=2.5 q=30.0 size=   12285kB time=00:00:10.20 bitrate=9858.2kbits/s speed=0.0802x    frame=  319 fps=2.5 q=30.0 size=   12285kB time=00:00:10.25 bitrate=9817.8kbits/s speed=0.0802x    frame=  320 fps=2.5 q=30.0 size=   12285kB time=00:00:10.29 bitrate=9777.7kbits/s speed=0.0797x    frame=  324 fps=2.5 q=30.0 size=   12285kB time=00:00:10.45 bitrate=9622.5kbits/s speed=0.0805x    frame=  326 fps=2.5 q=30.0 size=   12285kB time=00:00:10.54 bitrate=9545.9kbits/s speed=0.0807x    frame=  327 fps=2.5 q=30.0 size=   12285kB time=00:00:10.58 bitrate=9508.9kbits/s speed=0.0805x    frame=  331 fps=2.5 q=27.0 size=   12285kB time=00:00:10.75 bitrate=9361.2kbits/s speed=0.0814x    frame=  333 fps=2.5 q=30.0 size=   12285kB time=00:00:10.83 bitrate=9289.5kbits/s speed=0.0817x    frame=  334 fps=2.5 q=30.0 size=   12285kB time=00:00:10.87 bitrate=9253.6kbits/s speed=0.0816x    frame=  340 fps=2.5 q=30.0 size=   17008kB time=00:00:11.12 bitrate=12522.6kbits/s speed=0.0831x    frame=  342 fps=2.5 q=29.0 size=   17008kB time=00:00:11.20 bitrate=12429.8kbits/s speed=0.0831x    frame=  345 fps=2.5 q=29.0 size=   17008kB time=00:00:11.33 bitrate=12292.8kbits/s speed=0.0837x    frame=  348 fps=2.5 q=29.0 size=   17008kB time=00:00:11.45 bitrate=12158.7kbits/s speed=0.0837x    frame=  351 fps=2.6 q=29.0 size=   17008kB time=00:00:11.58 bitrate=12027.5kbits/s speed=0.0842x    frame=  353 fps=2.6 q=29.0 size=   17008kB time=00:00:11.66 bitrate=11940.9kbits/s speed=0.0845x    frame=  355 fps=2.5 q=29.0 size=   17008kB time=00:00:11.75 bitrate=11856.5kbits/s speed=0.0842x    frame=  358 fps=2.6 q=29.0 size=   17008kB time=00:00:11.87 bitrate=11731.7kbits/s speed=0.0847x    frame=  360 fps=2.6 q=29.0 size=   17008kB time=00:00:11.95 bitrate=11650.3kbits/s speed=0.085x    frame=  362 fps=2.6 q=29.0 size=   17008kB time=00:00:12.04 bitrate=11569.0kbits/s speed=0.0852x    frame=  363 fps=2.6 q=29.0 size=   17008kB time=00:00:12.08 bitrate=11529.8kbits/s speed=0.085x    frame=  367 fps=2.6 q=29.0 size=   17008kB time=00:00:12.25 bitrate=11372.6kbits/s speed=0.0858x    frame=  370 fps=2.6 q=29.0 size=   17008kB time=00:00:12.37 bitrate=11257.8kbits/s speed=0.0859x    frame=  374 fps=2.6 q=29.0 size=   17008kB time=00:00:12.54 bitrate=11107.9kbits/s speed=0.0865x    frame=  378 fps=2.6 q=28.0 size=   17008kB time=00:00:12.70 bitrate=10962.8kbits/s speed=0.087x    frame=  382 fps=2.6 q=28.0 size=   17008kB time=00:00:12.87 bitrate=10820.6kbits/s speed=0.0876x    frame=  385 fps=2.6 q=28.0 size=   17008kB time=00:00:13.00 bitrate=10716.6kbits/s speed=0.0879x    frame=  388 fps=2.6 q=28.0 size=   17008kB time=00:00:13.12 bitrate=10614.5kbits/s speed=0.0885x    frame=  390 fps=2.6 q=28.0 size=   17008kB time=00:00:13.20 bitrate=10547.8kbits/s speed=0.0887x    frame=  392 fps=2.6 q=28.0 size=   17008kB time=00:00:13.29 bitrate=10481.2kbits/s speed=0.0886x    frame=  396 fps=2.6 q=28.0 size=   17008kB time=00:00:13.45 bitrate=10351.9kbits/s speed=0.0893x    frame=  398 fps=2.6 q=28.0 size=   17008kB time=00:00:13.54 bitrate=10287.7kbits/s speed=0.0894x    frame=  400 fps=2.6 q=28.0 size=   17008kB time=00:00:13.62 bitrate=10225.0kbits/s speed=0.0895x    frame=  403 fps=2.6 q=28.0 size=   17008kB time=00:00:13.75 bitrate=10132.1kbits/s speed=0.09x    frame=  407 fps=2.6 q=28.0 size=   17008kB time=00:00:13.91 bitrate=10010.5kbits/s speed=0.0903x    frame=  411 fps=2.7 q=27.0 size=   17008kB time=00:00:14.08 bitrate=9892.5kbits/s speed=0.0908x    frame=  415 fps=2.7 q=27.0 size=   17008kB time=00:00:14.25 bitrate=9776.6kbits/s speed=0.0912x    frame=  418 fps=2.7 q=27.0 size=   17008kB time=00:00:14.37 bitrate=9691.6kbits/s speed=0.0917x    frame=  420 fps=2.7 q=27.0 size=   17008kB time=00:00:14.45 bitrate=9635.9kbits/s speed=0.0919x    frame=  423 fps=2.7 q=27.0 size=   17008kB time=00:00:14.58 bitrate=9553.3kbits/s speed=0.092x    frame=  426 fps=2.7 q=27.0 size=   17008kB time=00:00:14.70 bitrate=9472.2kbits/s speed=0.0925x    frame=  429 fps=2.7 q=27.0 size=   17008kB time=00:00:14.83 bitrate=9392.3kbits/s speed=0.0929x    frame=  431 fps=2.7 q=27.0 size=   17008kB time=00:00:14.91 bitrate=9339.5kbits/s speed=0.093x    frame=  437 fps=2.7 q=26.0 size=   21547kB time=00:00:15.16 bitrate=11637.1kbits/s speed=0.0939x    frame=  439 fps=2.7 q=26.0 size=   21547kB time=00:00:15.25 bitrate=11573.8kbits/s speed=0.0941x    frame=  441 fps=2.7 q=26.0 size=   21547kB time=00:00:15.33 bitrate=11511.1kbits/s speed=0.0942x    frame=  444 fps=2.7 q=26.0 size=   21547kB time=00:00:15.45 bitrate=11418.1kbits/s speed=0.0942x    frame=  447 fps=2.7 q=26.0 size=   21547kB time=00:00:15.58 bitrate=11326.5kbits/s speed=0.0943x    frame=  450 fps=2.7 q=26.0 size=   21547kB time=00:00:15.70 bitrate=11236.3kbits/s speed=0.0941x    frame=  454 fps=2.7 q=26.0 size=   21547kB time=00:00:15.87 bitrate=11118.1kbits/s speed=0.0948x    frame=  456 fps=2.7 q=26.0 size=   21547kB time=00:00:15.95 bitrate=11060.3kbits/s speed=0.0948x    frame=  458 fps=2.7 q=26.0 size=   21547kB time=00:00:16.04 bitrate=11002.4kbits/s speed=0.0944x    frame=  460 fps=2.7 q=26.0 size=   21547kB time=00:00:16.12 bitrate=10945.8kbits/s speed=0.0946x    frame=  462 fps=2.7 q=26.0 size=   21547kB time=00:00:16.20 bitrate=10889.7kbits/s speed=0.0948x    frame=  464 fps=2.7 q=26.0 size=   21547kB time=00:00:16.29 bitrate=10833.6kbits/s speed=0.0945x    frame=  466 fps=2.7 q=26.0 size=   21547kB time=00:00:16.37 bitrate=10778.7kbits/s speed=0.0945x    frame=  468 fps=2.7 q=26.0 size=   21547kB time=00:00:16.45 bitrate=10724.3kbits/s speed=0.0946x    frame=  470 fps=2.7 q=26.0 size=   21547kB time=00:00:16.54 bitrate=10669.9kbits/s speed=0.0946x    frame=  471 fps=2.7 q=26.0 size=   21547kB time=00:00:16.58 bitrate=10643.5kbits/s speed=0.0941x    frame=  475 fps=2.7 q=26.0 size=   21547kB time=00:00:16.75 bitrate=10537.4kbits/s speed=0.0948x    frame=  476 fps=2.7 q=26.0 size=   21547kB time=00:00:16.79 bitrate=10511.0kbits/s speed=0.0947x    frame=  477 fps=2.7 q=26.0 size=   21547kB time=00:00:16.83 bitrate=10485.4kbits/s speed=0.0942x    frame=  480 fps=2.7 q=27.0 size=   21547kB time=00:00:16.95 bitrate=10408.1kbits/s speed=0.0945x    frame=  483 fps=2.7 q=27.0 size=   21547kB time=00:00:17.08 bitrate=10332.0kbits/s speed=0.0946x    frame=  485 fps=2.7 q=27.0 size=   21547kB time=00:00:17.16 bitrate=10281.4kbits/s speed=0.0947x    frame=  490 fps=2.7 q=27.0 size=   25602kB time=00:00:17.37 bitrate=12070.3kbits/s speed=0.0955x    frame=  493 fps=2.7 q=27.0 size=   25602kB time=00:00:17.50 bitrate=11984.0kbits/s speed=0.0959x    frame=  494 fps=2.7 q=27.0 size=   25602kB time=00:00:17.54 bitrate=11955.4kbits/s speed=0.0956x    frame=  498 fps=2.7 q=27.0 size=   25602kB time=00:00:17.70 bitrate=11843.3kbits/s speed=0.0957x    frame=  500 fps=2.4 q=-1.0 Lsize=   31661kB time=00:00:20.70 bitrate=12524.5kbits/s speed=0.0998x    
video:31656kB audio:0kB subtitle:0kB other streams:0kB global headers:0kB muxing overhead: 0.015483%
bench: utime=776.168s
bench: maxrss=2157312kB
[libx264 @ 0x39651c0] frame I:6     Avg QP:20.12  size:271020
[libx264 @ 0x39651c0] frame P:273   Avg QP:26.58  size: 79220
[libx264 @ 0x39651c0] frame B:221   Avg QP:25.40  size: 41459
[libx264 @ 0x39651c0] consecutive B-frames: 35.2% 11.6% 18.0% 35.2%
[libx264 @ 0x39651c0] mb I  I16..4: 17.7% 75.1%  7.2%
[libx264 @ 0x39651c0] mb P  I16..4: 20.2% 21.4%  0.5%  P16..4: 32.0%  3.4%  2.3%  0.0%  0.0%    skip:20.1%
[libx264 @ 0x39651c0] mb B  I16..4:  1.3%  2.5%  0.2%  B16..8: 35.5%  3.9%  0.8%  direct: 2.2%  skip:53.6%  L0:43.4% L1:52.3% BI: 4.3%
[libx264 @ 0x39651c0] final ratefactor: 23.70
[libx264 @ 0x39651c0] 8x8 transform intra:52.9% inter:83.2%
[libx264 @ 0x39651c0] direct mvs  spatial:99.1% temporal:0.9%
[libx264 @ 0x39651c0] coded y,uvDC,uvAC intra: 20.8% 30.8% 3.4% inter: 9.5% 10.3% 0.2%
[libx264 @ 0x39651c0] i16 v,h,dc,p: 21% 25% 10% 44%
[libx264 @ 0x39651c0] i8 v,h,dc,ddl,ddr,vr,hd,vl,hu: 14% 13% 20%  7%  9%  9% 11%  7% 10%
[libx264 @ 0x39651c0] i4 v,h,dc,ddl,ddr,vr,hd,vl,hu: 14% 15%  8%  7% 13% 11% 14%  7% 11%
[libx264 @ 0x39651c0] i8c dc,h,v,p: 60% 23% 12%  5%
[libx264 @ 0x39651c0] Weighted P-Frames: Y:1.1% UV:0.7%
[libx264 @ 0x39651c0] ref P L0: 65.6% 16.9%  8.5%  2.9%  1.9%  1.5%  1.3%  1.1%  0.2%  0.0%
[libx264 @ 0x39651c0] ref B L0: 87.9%  6.7%  2.8%  1.1%  0.7%  0.5%  0.3%
[libx264 @ 0x39651c0] ref B L1: 98.0%  2.0%
[libx264 @ 0x39651c0] kb/s:12447.54
